<?xml version="1.0" encoding="utf-8"?>
<!-- Generator: Adobe Illustrator 25.1.0, SVG Export Plug-In . SVG Version: 6.00 Build 0)  -->
<svg version="1.1" id="레이어_1" xmlns="http://www.w3.org/2000/svg" xmlns:xlink="http://www.w3.org/1999/xlink" x="0px"
	 y="0px" viewBox="0 0 554.43 202.53" style="enable-background:new 0 0 554.43 202.53;" xml:space="preserve">
<style type="text/css">
	.st0{fill:#7FBE26;}
	.st1{fill:#EE7800;}
	.st2{fill:#7D7D7D;}
</style>
<g>
	<g>
		<g>
			<path class="st0" d="M167.7,124.87c-0.67,2.91-2.79,6.65-2.79,6.65c-13.08,24.14-32.98,44.04-57.12,57.13
				c0,0-3.75,2.12-6.64,2.78c-2.91-0.67-6.64-2.78-6.64-2.78c-16.43-8.93-30.73-21.04-42.22-35.51h15.38
				c8.43,9.12,18.24,17.09,29.02,23.65c0,0,3.12,1.9,4.45,2.27c1.33-0.37,4.44-2.27,4.44-2.27c19.38-11.78,35.69-28.1,47.48-47.48
				c0,0,1.92-3.11,2.27-4.45c-0.35-1.33-2.27-4.43-2.27-4.43c-11.79-19.39-28.1-35.7-47.48-47.48c0,0-3.1-1.91-4.44-2.26
				c-1.33,0.35-4.45,2.27-4.45,2.27c-10.78,6.56-20.59,14.52-29.02,23.64H52.29c11.49-14.47,25.79-26.58,42.22-35.5
				c0,0,3.73-2.11,6.64-2.79c2.89,0.68,6.64,2.79,6.64,2.79c24.14,13.08,44.04,32.99,57.12,57.13
				C164.91,118.24,167.03,121.97,167.7,124.87z"/>
		</g>
		<g>
			<rect x="118.81" y="101.32" class="st1" width="12.96" height="47.13"/>
			<path class="st1" d="M64.59,101.32H49.34c-4.16,5.59-7.91,11.52-11.22,17.72v-17.72H25.75v47.13h12.36v-17.73
				c3.31,6.2,7.06,12.12,11.22,17.73h15.25c-6.28-7.26-11.83-15.15-16.54-23.57C52.76,116.46,58.31,108.57,64.59,101.32z"/>
			<polygon class="st1" points="71.69,148.45 84.06,148.45 84.06,133.13 107.04,133.13 107.04,122.53 84.06,122.53 84.06,112.51 
				108.22,112.51 108.22,101.32 71.69,101.32 			"/>
		</g>
	</g>
</g>
<path class="st2" d="M411.12,97.02h-5.63v4.74h5.63v8.14h5.73V90.05h-5.73V97.02z M322.53,90.26h-5.74v4.11h-8.71v-4.11h-5.73v19.23
	h20.17V90.26z M316.79,104.63h-8.71V99.1h8.71V104.63z M214.24,90.05h-5.72v29.17h5.72V102.9h5.48v-4.87h-5.48V90.05z M459.5,108.9
	h15.81v2.61h-12.15v4.75h24.56v2.45h-24.56v12.26h30.44v-4.72h-24.71v-2.95h24.45v-11.79h-12.15v-2.61h15.8v-4.75H459.5V108.9z
	 M511.91,126.15v-8.46h5.33v-6.95h11.55v4.27h-6.89v4.73h6.89v3.48h5.73V90.05h-5.73v15.96h-9.59c2.65-1.45,4.37-4.02,4.37-7.74
	c0-6.1-4.63-9.64-10.32-9.64c-5.71,0-10.33,3.55-10.33,9.64c0,3.72,1.73,6.3,4.37,7.74h-6.55v4.73h10.62v5.16h-5.19v15.07h28.87
	v-4.81H511.91z M508.47,98.26c0-2.71,2.13-4.9,4.78-4.9c2.64,0,4.79,2.19,4.79,4.9c0,2.71-2.15,4.91-4.79,4.91
	C510.6,103.16,508.47,100.96,508.47,98.26z M478.25,95.29c2.43,2.59,6.87,5.25,14.71,6.44l1.37-4.54
	c-8.92-1.18-12.93-5.75-12.93-7.61v-0.3h-6.28v0.3c0,1.85-4.01,6.43-12.94,7.61l1.38,4.54C471.38,100.53,475.81,97.87,478.25,95.29z
	 M192.91,115.63h-5.74v15.34h27.58v-4.85h-21.85V115.63z M203.11,102.48c0-2.58-0.77-4.49-2.06-5.85h3.2V91.9h-8.43V88h-5.89v3.9
	h-8.44v4.73h3.21c-1.29,1.36-2.06,3.27-2.06,5.85c0,6.31,4.57,10.15,10.23,10.15C198.53,112.63,203.11,108.79,203.11,102.48z
	 M188.37,102.48c0-2.92,2.02-5.3,4.5-5.3c2.48,0,4.49,2.38,4.49,5.3c0,2.93-2.01,5.3-4.49,5.3
	C190.39,107.78,188.37,105.41,188.37,102.48z M254.62,90.72h-29.37v4.87h23.64v9.3h-26.46v4.86h14.32v6.14h-12.14v4.86h24.87v10.75
	h5.73v-15.61h-12.53v-6.14h14.87v-4.86h-2.92V90.72z M403.55,99.39c0-6.55-4.81-10.36-10.74-10.36c-5.93,0-10.75,3.81-10.75,10.36
	c0,6.54,4.82,10.36,10.75,10.36C398.74,109.74,403.55,105.93,403.55,99.39z M387.79,99.39c0-3.04,1.94-5.51,5.02-5.51
	c3.06,0,5.02,2.46,5.02,5.51c0,3.04-1.96,5.5-5.02,5.5C389.73,104.89,387.79,102.43,387.79,99.39z M448.57,131.49h5.74V90.05h-5.74
	V131.49z M373.36,90.05h-5.74v29.17h5.74V102.9h5.48v-4.87h-5.48V90.05z M423.24,95.93h13.53v0.41c0,7.53-3.33,14.4-15.07,18.26
	l1.59,4.76c10.68-3.43,19.29-10.08,19.29-23.24v-5.04h-19.34V95.93z M321.28,111.53c-6.73,0-12.18,4.07-12.18,10.75
	c0,6.69,5.45,10.75,12.18,10.75c6.73,0,12.18-4.06,12.18-10.75C333.46,115.6,328.01,111.53,321.28,111.53z M321.28,128.17
	c-3.56,0-6.45-2.63-6.45-5.88c0-3.26,2.89-5.89,6.45-5.89c3.56,0,6.44,2.63,6.44,5.89C327.73,125.53,324.84,128.17,321.28,128.17z
	 M411.12,116.01H395.5v-3.81h-5.73v18.76h27.08V112.2h-5.73V116.01z M411.12,126.12H395.5v-5.38h15.62V126.12z M352.02,115.63h-5.74
	v15.34h27.59v-4.85h-21.85V115.63z M351.28,103.52c1.91,3.25,4.99,6.32,9.74,8.72l2.5-4.58c-7.28-3.66-9.05-9.42-9.14-13.94v-3.67
	h-6.18v3.67c-0.1,4.52-1.86,10.28-9.16,13.94l2.51,4.58C346.29,109.84,349.36,106.77,351.28,103.52z M339.2,97.03h-5.49v-6.98h-5.73
	v20.47h5.73v-8.63h5.49V97.03z M283.46,111.02h-5.88v12.94h-15.21v4.96h36.29v-4.96h-15.21V111.02z M280.51,100.73
	c3.06,3.57,8.56,6.94,16.59,8.29l1.09-4.65c-9.57-1.8-14.64-7.14-14.64-11.73v-2.58h-6.08v2.58c0,4.59-5.08,9.93-14.65,11.73
	l1.09,4.65C271.96,107.67,277.47,104.3,280.51,100.73z"/>
<g>
	<path class="st2" d="M186.29,140.24h3.11v6.66l5.59-6.66h3.82l-6.37,7.31l6.64,8.19h-4.07l-5.58-7.2h-0.04v7.2h-3.11V140.24z"/>
	<path class="st2" d="M214.03,144.15c3.44,0,5.75,2.48,5.75,5.93c0,3.23-2.35,5.93-5.75,5.93c-3.43,0-5.78-2.69-5.78-5.93
		C208.25,146.63,210.56,144.15,214.03,144.15z M214.03,154.32c2.44,0,3.53-2.21,3.53-4.24c0-2.16-1.3-4.25-3.53-4.25
		c-2.24,0-3.56,2.09-3.56,4.25C210.47,152.11,211.56,154.32,214.03,154.32z"/>
	<path class="st2" d="M230.51,144.41h1.95v1.76h0.05c0.56-1.18,1.75-2.02,2.95-2.02c0.63,0,0.93,0.07,1.38,0.16v1.87
		c-0.38-0.16-0.8-0.2-1.15-0.2c-1.87,0-3.09,1.77-3.09,4.61v5.15h-2.09V144.41z"/>
	<path class="st2" d="M255.76,155.28c-0.8,0.29-1.71,0.73-3.58,0.73c-4.02,0-5.87-2.44-5.87-6.13c0-3.35,2.11-5.73,5.31-5.73
		c3.78,0,5,2.75,5,6.4h-8.09c0,2.23,1.76,3.77,3.74,3.77c1.37,0,2.97-0.71,3.49-1.13V155.28z M254.41,148.99
		c0-1.74-1.02-3.16-2.82-3.16c-2.04,0-2.88,1.7-3.04,3.16H254.41z"/>
	<path class="st2" d="M267.89,145.21c1.04-0.62,2.28-1.06,3.73-1.06c3.24,0,4.55,1.6,4.55,4.68v4.69c0,1.28,0.04,1.88,0.09,2.22
		h-1.95v-1.47h-0.05c-0.49,0.7-1.6,1.73-3.5,1.73c-2.45,0-4.16-1.07-4.16-3.53c0-2.85,3.11-3.73,5.27-3.73c0.81,0,1.4,0,2.22,0.04
		c0-1.95-0.71-2.96-2.8-2.96c-1.18,0-2.45,0.45-3.29,1.16L267.89,145.21z M274.09,150.34c-0.45,0-0.89-0.04-1.34-0.04
		c-1.13,0-3.93,0.18-3.93,2.18c0,1.2,1.16,1.84,2.11,1.84c2.07,0,3.15-1.29,3.15-2.97V150.34z"/>
	<path class="st2" d="M301.76,140.24h8.62v2.44h-5.5v3.82h5.24v2.45h-5.24v6.79h-3.12V140.24z"/>
	<path class="st2" d="M323.26,139.53h-2.35v2.35h2.35V139.53z M321.03,155.75h2.09v-11.33h-2.09V155.75z"/>
	<path class="st2" d="M334.88,155.75h2.09v-5.15c0-2.85,1.22-4.61,3.09-4.61c0.36,0,0.78,0.04,1.16,0.2v-1.87
		c-0.45-0.09-0.76-0.16-1.38-0.16c-1.2,0-2.4,0.85-2.95,2.02h-0.04v-1.76h-1.96V155.75z"/>
	<path class="st2" d="M360.13,155.28c-0.8,0.29-1.71,0.73-3.57,0.73c-4.02,0-5.86-2.44-5.86-6.13c0-3.35,2.11-5.73,5.3-5.73
		c3.78,0,5,2.75,5,6.4h-8.08c0,2.23,1.76,3.77,3.74,3.77c1.37,0,2.98-0.71,3.48-1.13V155.28z M358.78,148.99
		c0-1.74-1.02-3.16-2.82-3.16c-2.04,0-2.89,1.7-3.04,3.16H358.78z"/>
	<path class="st2" d="M385.58,140.24h3.1v15.51h-3.1V140.24z"/>
	<path class="st2" d="M399.93,144.41h2.02v1.81h0.04c0.63-1.29,2.14-2.07,3.71-2.07c2.94,0,4.25,1.83,4.25,4.87v6.73h-2.09v-5.87
		c0-2.64-0.58-3.93-2.4-4.05c-2.38,0-3.44,1.91-3.44,4.67v5.24h-2.09V144.41z"/>
	<path class="st2" d="M420.47,155.39c0.96,0.52,2.04,0.62,3.11,0.62c2.02,0,3.96-1.12,3.96-3.53c0-3.62-4.9-2.96-4.9-5.26
		c0-0.93,0.93-1.38,2-1.38c0.49,0,1.74,0.3,2.2,0.58l0.18-1.82c-0.82-0.25-1.62-0.44-2.59-0.44c-2.24,0-4,1.13-4,3.49
		c0,3.17,4.91,3,4.91,5.06c0,1.22-1.18,1.62-2.13,1.62c-0.6,0-1.78-0.26-2.6-0.8L420.47,155.39z"/>
	<path class="st2" d="M444.01,146.11h-3v6.19c0,1.31,0.8,2.02,1.76,2.02c0.64,0,1.11-0.2,1.42-0.4v1.78
		c-0.46,0.13-1.11,0.31-1.77,0.31c-2.16,0-3.49-1.02-3.49-3.28v-6.62h-2.55v-1.7h2.55v-2.62l2.08-0.67v3.28h3V146.11z"/>
	<path class="st2" d="M457.05,141.88h-2.35v-2.35h2.35V141.88z M454.83,144.41h2.09v11.33h-2.09V144.41z"/>
	<path class="st2" d="M474.69,144.41h-3v-3.28l-2.08,0.67v2.62h-2.55v1.7h2.55v6.62c0,2.26,1.33,3.28,3.49,3.28
		c0.67,0,1.32-0.18,1.77-0.31v-1.78c-0.31,0.2-0.78,0.4-1.42,0.4c-0.96,0-1.75-0.71-1.75-2.02v-6.19h3V144.41z"/>
	<path class="st2" d="M495.25,155.75h-2.02v-1.8h-0.04c-0.63,1.28-2.13,2.06-3.71,2.06c-2.93,0-4.25-1.82-4.25-4.87v-6.73h2.09v5.87
		c0,2.65,0.58,3.93,2.4,4.04c2.38,0,3.44-1.91,3.44-4.67v-5.24h2.09V155.75z"/>
	<path class="st2" d="M512.76,146.11h-3.01v6.19c0,1.31,0.81,2.02,1.76,2.02c0.64,0,1.11-0.2,1.42-0.4v1.78
		c-0.46,0.13-1.11,0.31-1.78,0.31c-2.15,0-3.49-1.02-3.49-3.28v-6.62h-2.55v-1.7h2.55v-2.62l2.08-0.67v3.28h3.01V146.11z"/>
	<path class="st2" d="M532,155.28c-0.8,0.29-1.71,0.73-3.59,0.73c-4.02,0-5.86-2.44-5.86-6.13c0-3.35,2.11-5.73,5.3-5.73
		c3.78,0,5,2.75,5,6.4h-8.09c0,2.23,1.75,3.77,3.73,3.77c1.38,0,2.98-0.71,3.5-1.13V155.28z M530.63,148.99
		c0-1.74-1.02-3.16-2.82-3.16c-2.04,0-2.88,1.7-3.04,3.16H530.63z"/>
</g>
</svg>
